<svg xmlns="http://www.w3.org/2000/svg" viewBox="0 0 135.467 135.467">
  <defs>
    <radialGradient id="bg" cx="50%" cy="0%" r="100%" fx="50%" fy="0%">
      <stop offset="0"    stop-color="#99FF55" stop-opacity="0.2"/>
      <stop offset="0.55" stop-color="#99FF55" stop-opacity="0.078"/>
      <stop offset="1"    stop-color="#99FF55" stop-opacity="0"/>
    </radialGradient>
  </defs>
  <!-- Squircle BG: black base + radial green gradient overlay matching
       the Settings/Welcome window gradient (#33/#14/#00 alpha #99FF55,
       center 50%,0%). Corner radius ~22.4% per Apple's squircle spec. -->
  <rect x="0" y="0" width="135.467" height="135.467" rx="30.34" ry="30.34" fill="#000000"/>
  <rect x="0" y="0" width="135.467" height="135.467" rx="30.34" ry="30.34" fill="url(#bg)"/>
  <!-- Shrink to 70% inside squircle — sits comfortably inside Apple's
       grid safe area. Translate around the canvas center
       (67.7335, 67.7335) so the bolt stays centered. -->
  <g transform="translate(67.7335 67.7335) scale(0.70) translate(-67.7335 -67.7335)" style="fill-rule:evenodd">
    <path d="M58.752 39.705c-14.932-.247-29.882.553-33.542 2.586C17.89 46.358-9.096 91.37-9.234 99.742s25.351 54.25 32.533 58.556c7.181 4.306 59.658 5.172 66.977 1.106 7.32-4.067 34.306-49.08 34.445-57.451.138-8.372-25.352-54.25-32.533-58.556-3.59-2.153-18.504-3.446-33.436-3.692m8.77 8.91a1.85 1.85 0 0 1 1.435.652c.283.342.51.793.506 1-.007.374-.752 4.27-3.335 17.435-.74 3.776-1.86 9.507-2.49 12.735-.63 3.229-1.348 6.868-1.598 8.086s-.42 2.276-.377 2.35l.003.004c.066.077.867.27 1.8.434 2.092.365 16.665 3.133 24.41 4.635 3.19.619 5.852 1.247 6.15 1.451.655.448.98 1.308.776 2.055-.085.312-4.984 6.137-10.885 12.943l-22.654 26.128c-6.558 7.564-12.109 13.932-12.338 14.152-.674.648-1.831.498-2.496-.326-.31-.382-.557-.884-.553-1.114s.465-2.74 1.022-5.578 1.606-8.198 2.332-11.914a4333 4333 0 0 1 3.944-20.048c.31-1.534.504-2.86.445-3.012l-.003-.003v-.003h-.003c-.078-.077-1.19-.328-2.47-.558-2.6-.467-15.113-2.85-23.64-4.503-3.072-.596-5.791-1.2-6.043-1.341-.72-.404-1.053-1.744-.666-2.676.075-.18 3.12-3.773 6.767-7.982C54.691 62.31 65.924 49.4 66.353 49.035c.332-.281.75-.418 1.17-.42z" style="fill:#99ff55;fill-opacity:1;stroke:none;stroke-width:3.175;stroke-dasharray:none" transform="rotate(-1.145 -744.858 -913.399)scale(.8307)"/>
    <path d="M90.275 159.404c-7.32 4.066-59.796 3.2-66.977-1.105-7.182-4.306-32.67-50.185-32.532-58.557s27.126-53.385 34.446-57.451 59.796-3.2 66.977 1.105c7.181 4.306 32.67 50.185 32.531 58.557-.138 8.372-27.126 53.385-34.445 57.451z" style="fill:none;stroke:#99ff55;stroke-width:4.8981;stroke-dasharray:none;stroke-opacity:1" transform="matrix(.9753 -.0195 .0195 .9753 9.452 -29.5)"/>
  </g>
</svg>
